# xmcd CD database file
#
# Track frame offsets:
#	150
#	12103
#	22552
#	34024
#	46103
#	58647
#	69580
#	80085
#	91096
#	108380
#	119660
#	131893
#	145723
#	157193
#	170932
#
# Disc length: 2444 seconds
#
# Revision: 2
# Processed by: cddbd v1.5.2PL0 Copyright (c) Steve Scherf et al.
# Submitted via: CDex 1.51
#
DISCID=c7098a0f
DTITLE=Country Fever (compilation) - Classics CD1
DYEAR=1900
DGENRE=Country
TTITLE0=Billie Joe Spears - Look what they've done to my song
TTITLE1=Cowboy Copas - Alabam
TTITLE2=Kenny Roger - Me and Bobby McGee
TTITLE3=Wyalon Jennings - Don(t think twice, it's alright
TTITLE4=Johnny Cash - I walk the line
TTITLE5=Dolly Parton - It wasn't God who made honky tonk angels
TTITLE6=Patsy Cline - Walkin' after midnight
TTITLE7=Bill Carlisle - No help wanted
TTITLE8=Smoky Dawson - Outlaws of the wedding range
TTITLE9=Merle Kilgore - Love has made you beautiful
TTITLE10=Porter Wagoneer - Green green grass of home
TTITLE11=Johnny Paycheck - Someone to give my love to
TTITLE12=Don Gibson - I can't stop loving you
TTITLE13=Hank Williams - Lost highway
TTITLE14=Lynn Anderson - Stand by your man
EXTD=
EXTT0=
EXTT1=
EXTT2=
EXTT3=
EXTT4=
EXTT5=
EXTT6=
EXTT7=
EXTT8=
EXTT9=
EXTT10=
EXTT11=
EXTT12=
EXTT13=
EXTT14=
PLAYORDER=
